# xmcd
#
# Track frame offsets:
#	150
#	19871
#	44918
#	68504
#	85485
#	101934
#	115392
#	133039
#	149224
#	163852
#	190198
#	204364
#	221081
#	234352
#
# Disc length: 3379 seconds
#
# Revision: 0
# Processed by: cddbd v1.5.1PL2 Copyright (c) Steve Scherf et al.
# Submitted via: EasyCDDAExtractor 8.2.3.1
#
DISCID=dc0d310e
DTITLE=D. Smith Blues Band - Playing In The Dark
DYEAR=1998
DGENRE=Blues
TTITLE0=It Ain't Right
TTITLE1=Blue Monday
TTITLE2=Playing In The Dark
TTITLE3=What Your Man Don't Know (Won't Hurt Me)
TTITLE4=When I Work My Thing On You
TTITLE5=Got Love (If You Want It)
TTITLE6=Your Love
TTITLE7=Booty Call
TTITLE8=Just Tryin' To Get My Feet On Solid Ground
TTITLE9=Reconsider Baby
TTITLE10=Who's Been Talkin'
TTITLE11=All Gone
TTITLE12=I Had My Fun
TTITLE13=Long Black Train
EXTD=
EXTT0=
EXTT1=
EXTT2=
EXTT3=
EXTT4=
EXTT5=
EXTT6=
EXTT7=
EXTT8=
EXTT9=
EXTT10=
EXTT11=
EXTT12=
EXTT13=
PLAYORDER=
